<svg id="Layer_1" data-name="Layer 1" xmlns="http://www.w3.org/2000/svg" viewBox="0 0 628.47 355.48"><defs><style>.cls-1,.cls-2{fill:#fff;}.cls-2{font-size:60px;font-family:Open Sans;}.cls-3{fill:none;stroke:#fff;stroke-miterlimit:10;stroke-width:3px;}</style></defs><title>moms-logo</title><path class="cls-1" d="M156.82,325.91l13.56-20.1a59.59,59.59,0,0,0,13.85,4.68,30.67,30.67,0,0,0,9.85-15.55q2.63-9.44,4.88-37.07L207,156.56q-44.16,7.21-44.16,44.48a69.42,69.42,0,0,0,4.3,23.26L151.35,245q-2.15-6.65-2.15-19.69,0-40.74,22.8-62.27t65.77-21.53q70.9,0,70.9,68.58a149.06,149.06,0,0,1-19.92,75.65q-26.47,45.77-80.66,45.77Q185.33,331.48,156.82,325.91ZM223,153.43l-8.13,102-1,12.77q-1.46,17.8-5.47,26T192.7,311.87a211.22,211.22,0,0,0,40,4.13q17.3,0,26.73-6.73t18.42-25.49q12.61-26.1,12.61-58.58,0-71.77-64.19-71.77H223Z" transform="translate(-80.82 -58.74)"/><path class="cls-1" d="M369.65,289.9q-11,18.16-24.24,29.74t-23,11.57q-13.36,0-13.36-21.58,0-29.69,19.48-51.42t46.14-21.73A51.84,51.84,0,0,1,392,239q-0.49,1.76-.59,2.15l-1.17,5.17q-1.17,5.36-1.27,6.24l-6.25,43.11-0.88,6.24a114.22,114.22,0,0,0-1.27,12.39q0,4.2,2.43,4.19,8.17,0,16.72-18.26,2.62,1.56,2.63,3.13,0,3.42-8.4,13.77-11.43,14.06-21.19,14.06-7.13,0-7.13-9.57a65.58,65.58,0,0,1,.69-8.11l1-7.81,1.28-8.59Zm5.57-38.68a36.49,36.49,0,0,0-18-5q-13.68,0-23,16.68T325,304.27q0,12.68,7.52,12.68,8.7,0,21-13.26a76.41,76.41,0,0,0,20.13-41.93Z" transform="translate(-80.82 -58.74)"/><path class="cls-1" d="M433.2,330.91a275.43,275.43,0,0,0-3.22-43l-3.22-20.68q-2.73-17.65-9.37-18.14Q410,248.49,407,263.73a3.78,3.78,0,0,1-3.12-3.91q0-7.42,7-16t12.84-8.59q8.59,0,13.53,14.16T445.69,298l0.58,6q17.19-31.54,25.69-57.62l11.59-11.13q1.17,13.18,2.24,20.41l2.33,15.63,1.65,10.94,4.28,25,2.35-3.81Q519,266.46,519,256q0-5.66-6-9.67l11.82-11.13q7.23,4,7.23,10.64,0,8-11.14,26.46l-6,9.86L507.7,295a140.27,140.27,0,0,0-11.53,24.51l-11.7,11.72q-1.37-17.58-4.79-37L478,285l-4.21-22.85-4.57,8.4a329.79,329.79,0,0,0-21,46.78Z" transform="translate(-80.82 -58.74)"/><path class="cls-1" d="M563.55,325.25l-14.61,6,0.29-2.73,0.79-7.23,0.78-6.84,5.09-45.31,0.59-5.18q0.59-6.05.59-9.77,0-6.25-3.13-6.25-7.34,0-15.75,16.6-2.25-1.85-2.25-3.22,0-5.86,10.71-16t16.87-10.11q8.4,0,8.41,10.74a73.27,73.27,0,0,1-.49,7.32l-0.78,7.91-0.8,6.64-0.8,6.93a128.48,128.48,0,0,1,25.24-28.37q13.72-11.18,23.39-11.18,9.47,0,9.47,13.17a102.58,102.58,0,0,1-1,12l-5.31,36.38A124.7,124.7,0,0,0,619.19,314q0,5.07,2.74,5.07,6.75,0,16.64-17.87,2.35,1.46,2.35,3,0,6.35-10.9,16.65t-17.75,10.3q-7.63,0-7.62-10.94a164.8,164.8,0,0,1,2.05-22.17l3.45-23.63a135.68,135.68,0,0,0,1.66-18.26q0-7.71-5.37-7.71-12.49,0-25.32,16.94t-15,36.38Z" transform="translate(-80.82 -58.74)"/><text class="cls-2" transform="translate(263.89 137.93)">Chaplain</text><rect class="cls-3" x="1.5" y="1.5" width="625.47" height="352.48"/></svg>